TITLE ""
FILE "Step3_Track19.mp3" MP3
  TRACK 01 AUDIO
    TITLE "Step3_Track19_01"
    INDEX 01 00:00:00
  TRACK 02 AUDIO
    TITLE "Step3_Track19_02"
    INDEX 01 00:00:22
  TRACK 03 AUDIO
    TITLE "Step3_Track19_03"
    INDEX 01 00:01:70
  TRACK 04 AUDIO
    TITLE "Step3_Track19_04"
    INDEX 01 00:02:52
  TRACK 05 AUDIO
    TITLE "Step3_Track19_05"
    INDEX 01 00:03:44
  TRACK 06 AUDIO
    TITLE "Step3_Track19_06"
    INDEX 01 00:03:58
  TRACK 07 AUDIO
    TITLE "Step3_Track19_07"
    INDEX 01 00:06:38
  TRACK 08 AUDIO
    TITLE "Step3_Track19_08"
    INDEX 01 00:06:74
  TRACK 09 AUDIO
    TITLE "Step3_Track19_09"
    INDEX 01 00:07:71
  TRACK 10 AUDIO
    TITLE "Step3_Track19_10"
    INDEX 01 00:07:73
  TRACK 11 AUDIO
    TITLE "Step3_Track19_11"
    INDEX 01 00:11:51
  TRACK 12 AUDIO
    TITLE "Step3_Track19_12"
    INDEX 01 00:12:19
  TRACK 13 AUDIO
    TITLE "Step3_Track19_13"
    INDEX 01 00:13:19
  TRACK 14 AUDIO
    TITLE "Step3_Track19_14"
    INDEX 01 00:13:21
  TRACK 15 AUDIO
    TITLE "Step3_Track19_15"
    INDEX 01 00:16:33
  TRACK 16 AUDIO
    TITLE "Step3_Track19_16"
    INDEX 01 00:16:60
  TRACK 17 AUDIO
    TITLE "Step3_Track19_17"
    INDEX 01 00:17:60
  TRACK 18 AUDIO
    TITLE "Step3_Track19_18"
    INDEX 01 00:17:62
  TRACK 19 AUDIO
    TITLE "Step3_Track19_19"
    INDEX 01 00:20:19
  TRACK 20 AUDIO
    TITLE "Step3_Track19_20"
    INDEX 01 00:20:74
  TRACK 21 AUDIO
    TITLE "Step3_Track19_21"
    INDEX 01 00:22:02
  TRACK 22 AUDIO
    TITLE "Step3_Track19_22"
    INDEX 01 00:22:10
  TRACK 23 AUDIO
    TITLE "Step3_Track19_23"
    INDEX 01 00:24:26
  TRACK 24 AUDIO
    TITLE "Step3_Track19_24"
    INDEX 01 00:24:46
  TRACK 25 AUDIO
    TITLE "Step3_Track19_25"
    INDEX 01 00:25:47
  TRACK 26 AUDIO
    TITLE "Step3_Track19_26"
    INDEX 01 00:25:57
  TRACK 27 AUDIO
    TITLE "Step3_Track19_27"
    INDEX 01 00:28:63
  TRACK 28 AUDIO
    TITLE "Step3_Track19_28"
    INDEX 01 00:29:14
  TRACK 29 AUDIO
    TITLE "Step3_Track19_29"
    INDEX 01 00:30:19
  TRACK 30 AUDIO
    TITLE "Step3_Track19_30"
    INDEX 01 00:30:29
  TRACK 31 AUDIO
    TITLE "Step3_Track19_31"
    INDEX 01 00:33:69
  TRACK 32 AUDIO
    TITLE "Step3_Track19_32"
    INDEX 01 00:34:17
  TRACK 33 AUDIO
    TITLE "Step3_Track19_33"
    INDEX 01 00:34:74
  TRACK 34 AUDIO
    TITLE "Step3_Track19_34"
    INDEX 01 00:35:34
  TRACK 35 AUDIO
    TITLE "Step3_Track19_35"
    INDEX 01 00:38:17
  TRACK 36 AUDIO
    TITLE "Step3_Track19_36"
    INDEX 01 00:38:48
  TRACK 37 AUDIO
    TITLE "Step3_Track19_37"
    INDEX 01 00:39:53
  TRACK 38 AUDIO
    TITLE "Step3_Track19_38"
    INDEX 01 00:39:69
  TRACK 39 AUDIO
    TITLE "Step3_Track19_39"
    INDEX 01 00:42:60
  TRACK 40 AUDIO
    TITLE "Step3_Track19_40"
    INDEX 01 00:43:10
  TRACK 41 AUDIO
    TITLE "Step3_Track19_41"
    INDEX 01 00:44:06
  TRACK 42 AUDIO
    TITLE "Step3_Track19_42"
    INDEX 01 00:44:29
  TRACK 43 AUDIO
    TITLE "Step3_Track19_43"
    INDEX 01 00:46:65
